<?xml version="1.0" encoding="UTF-8" standalone="no"?>
<svg
   xmlns:dc="http://purl.org/dc/elements/1.1/"
   xmlns:cc="http://creativecommons.org/ns#"
   xmlns:rdf="http://www.w3.org/1999/02/22-rdf-syntax-ns#"
   xmlns:svg="http://www.w3.org/2000/svg"
   xmlns="http://www.w3.org/2000/svg"
   xmlns:sodipodi="http://sodipodi.sourceforge.net/DTD/sodipodi-0.dtd"
   xmlns:inkscape="http://www.inkscape.org/namespaces/inkscape"
   width="700"
   height="700"
   viewBox="0 0 700 700"
   version="1.1"
   id="svg83"
   sodipodi:docname="racing-logo.svg"
   style="fill:none"
   inkscape:version="0.92.0 r15299"
   inkscape:export-filename="C:\Users\suitedoalex\sites\racing-logo-0.png"
   inkscape:export-xdpi="561.73712"
   inkscape:export-ydpi="561.73712">
  <metadata
     id="metadata87">
    <rdf:RDF>
      <cc:Work
         rdf:about="">
        <dc:format>image/svg+xml</dc:format>
        <dc:type
           rdf:resource="http://purl.org/dc/dcmitype/StillImage" />
        <dc:title></dc:title>
      </cc:Work>
    </rdf:RDF>
  </metadata>
  <sodipodi:namedview
     pagecolor="#ffffff"
     bordercolor="#666666"
     borderopacity="1"
     objecttolerance="10"
     gridtolerance="10"
     guidetolerance="10"
     inkscape:pageopacity="0"
     inkscape:pageshadow="2"
     inkscape:window-width="1920"
     inkscape:window-height="1017"
     id="namedview85"
     showgrid="false"
     inkscape:zoom="0.46803653"
     inkscape:cx="5.327353"
     inkscape:cy="413.62903"
     inkscape:window-x="-8"
     inkscape:window-y="-8"
     inkscape:window-maximized="1"
     inkscape:current-layer="svg83" />
  <g
     clip-path="url(#clip0_108_4716)"
     id="g76"
     transform="translate(0,580)"
     inkscape:export-filename="C:\Users\suitedoalex\sites\racing-logo-2.png"
     inkscape:export-xdpi="160.73195"
     inkscape:export-ydpi="160.73195" />
  <defs
     id="defs81">
    <clipPath
       id="clip0_108_4716">
      <rect
         width="438"
         height="119.197"
         id="rect78"
         x="0"
         y="0"
         style="fill:#ffffff" />
    </clipPath>
  </defs>
  <path
     d="m 349.99981,603.9281 -9.95799,-9.8847 c -23.43015,-23.35686 -56.81869,-35.73404 -96.43078,-35.73404 h -0.95181 c -2.78262,0 -27.6772,-0.21729 -52.71872,-7.61377 -42.61409,-12.66691 -48.98422,-36.82945 -48.98422,-50.08219 V 96.0719 h 418.08742 v 404.83421 c 0,56.81954 -100.82435,57.47994 -101.84946,57.47994 h -0.58583 c -38.87969,0 -73.22007,12.59021 -96.65063,35.58492 l -10.03083,9.8847 z"
     id="path2"
     inkscape:connector-curvature="0"
     style="fill:#ffffff;stroke-width:4.26064587"
     inkscape:export-filename="C:\Users\suitedoalex\sites\racing-logo-2.png"
     inkscape:export-xdpi="160.73195"
     inkscape:export-ydpi="160.73195" />
  <path
     d="m 155.15289,110.27889 v 390.26378 c 0,20.57466 21.16064,31.19304 38.80669,36.46346 23.50388,6.95764 47.66645,7.03007 48.69155,7.03007 h 0.95183 c 43.63923,0 80.24925,13.76615 106.46204,39.83278 26.13946,-25.62779 63.70176,-39.68793 106.6086,-39.68793 h 0.58584 c 0.87853,0 87.57117,-1.38896 87.57117,-43.27239 V 110.27889 Z"
     id="path4"
     inkscape:connector-curvature="0"
     style="fill:#009fe3;stroke-width:4.26064587"
     inkscape:export-filename="C:\Users\suitedoalex\sites\racing-logo-2.png"
     inkscape:export-xdpi="160.73195"
     inkscape:export-ydpi="160.73195" />
  <path
     d="m 210.44147,222.08561 v 305.25312 c 17.0605,3.29773 31.63108,3.37017 32.36348,3.37017 h 0.95182 c 7.68792,0 15.22968,0.43884 22.55159,1.2441 V 222.08561 Z"
     id="path6"
     inkscape:connector-curvature="0"
     style="fill:#ffffff;stroke-width:4.26064587"
     inkscape:export-filename="C:\Users\suitedoalex\sites\racing-logo-2.png"
     inkscape:export-xdpi="160.73195"
     inkscape:export-ydpi="160.73195" />
  <path
     d="m 322.10025,222.08561 v 325.9769 c 10.17783,5.19799 19.62325,11.49522 28.11685,18.89171 8.34702,-7.03007 17.64589,-13.18245 27.67715,-18.23558 V 222.08561 Z"
     id="path8"
     inkscape:connector-curvature="0"
     style="fill:#ffffff;stroke-width:4.26064587"
     inkscape:export-filename="C:\Users\suitedoalex\sites\racing-logo-2.png"
     inkscape:export-xdpi="160.73195"
     inkscape:export-ydpi="160.73195" />
  <path
     d="m 433.75942,222.08561 v 310.08895 c 7.54135,-0.88195 15.22968,-1.39323 23.06416,-1.39323 h 0.58582 c 8.63974,-0.0724 20.42853,-1.09925 32.21688,-3.4426 V 222.08561 h -55.79399 z"
     id="path10"
     inkscape:connector-curvature="0"
     style="fill:#ffffff;stroke-width:4.26064587"
     inkscape:export-filename="C:\Users\suitedoalex\sites\racing-logo-2.png"
     inkscape:export-xdpi="160.73195"
     inkscape:export-ydpi="160.73195" />
  <path
     d="m 220.25932,170.17177 v 0.14657 l 18.15843,20.86779 h -15.08309 l -13.83863,-18.3783 h -14.35114 v 18.3783 h -12.44757 v -51.47372 h 27.1647 c 15.66898,0 23.65002,6.0041 23.65002,16.18152 0,6.95592 -4.75911,13.03331 -13.17945,14.35113 m -10.83657,-21.23378 h -14.27828 v 15.44953 h 13.83901 c 8.12723,0 11.56855,-2.48951 11.56855,-8.05434 0,-4.97898 -3.07534,-7.39519 -11.056,-7.39519"
     id="path12"
     inkscape:connector-curvature="0"
     style="fill:#ffffff;stroke-width:4.26064587"
     inkscape:export-filename="C:\Users\suitedoalex\sites\racing-logo-2.png"
     inkscape:export-xdpi="160.73195"
     inkscape:export-ydpi="160.73195" />
  <path
     d="m 290.62813,180.78887 h -31.77759 l -5.12515,10.47054 h -13.32645 l 27.67758,-51.547 h 13.7653 l 27.82373,51.547 h -14.05841 l -5.05229,-10.47054 z m -18.08516,-27.897 -9.15272,18.59815 h 22.84473 l -8.93287,-18.59815 -2.19678,-5.12512 h -0.21944 z"
     id="path14"
     inkscape:connector-curvature="0"
     style="fill:#ffffff;stroke-width:4.26064587"
     inkscape:export-filename="C:\Users\suitedoalex\sites\racing-logo-2.png"
     inkscape:export-xdpi="160.73195"
     inkscape:export-ydpi="160.73195" />
  <path
     d="m 358.26929,151.3559 c -4.1733,-1.3178 -9.59158,-2.4162 -15.88879,-2.4162 -14.8637,0 -20.1354,5.05226 -20.1354,16.40135 0,11.93493 5.41827,16.84064 20.42853,16.84064 5.93082,0 11.2025,-1.17168 15.59566,-2.92878 l 1.61095,9.07901 c -5.12556,2.27008 -12.08148,3.95389 -18.67099,3.95389 -21.45364,0 -31.92418,-10.03084 -31.92418,-26.94476 0,-15.74266 10.03126,-26.65247 33.02257,-26.65247 6.29681,0 13.03288,1.24496 17.42604,2.70934 l -1.3911,9.88471 z"
     id="path16"
     inkscape:connector-curvature="0"
     style="fill:#ffffff;stroke-width:4.26064587"
     inkscape:export-filename="C:\Users\suitedoalex\sites\racing-logo-2.png"
     inkscape:export-xdpi="160.73195"
     inkscape:export-ydpi="160.73195" />
  <path
     d="m 381.92737,139.71241 h -12.59361 v 51.547 h 12.59361 z"
     id="path18"
     inkscape:connector-curvature="0"
     style="fill:#ffffff;stroke-width:4.26064587"
     inkscape:export-filename="C:\Users\suitedoalex\sites\racing-logo-2.png"
     inkscape:export-xdpi="160.73195"
     inkscape:export-ydpi="160.73195" />
  <path
     d="m 443.94152,191.25941 -33.53469,-31.99745 -3.95388,-3.8806 -0.21943,0.0732 0.14614,5.56485 v 30.23992 h -11.34908 v -51.54695 h 10.47053 l 31.41161,30.67921 3.8806,3.95388 0.14656,-0.14656 -0.14656,-5.49155 v -28.99498 h 11.27579 v 51.547 z"
     id="path20"
     inkscape:connector-curvature="0"
     style="fill:#ffffff;stroke-width:4.26064587"
     inkscape:export-filename="C:\Users\suitedoalex\sites\racing-logo-2.png"
     inkscape:export-xdpi="160.73195"
     inkscape:export-ydpi="160.73195" />
  <path
     d="m 516.49178,188.98722 c -5.49154,1.97693 -13.61915,3.29518 -21.1605,3.29518 -23.72369,0 -33.82783,-10.25112 -33.82783,-26.72577 0,-16.47421 10.17742,-26.94482 33.82783,-26.94482 7.02879,0 14.49729,1.02519 19.98883,2.85557 l -1.24453,10.03127 c -5.34541,-1.68424 -11.64221,-2.70936 -18.15888,-2.70936 -15.52237,0 -21.3799,4.75958 -21.3799,16.62121 0,11.86164 5.19841,16.76734 20.28193,16.76734 4.17331,0 7.68791,-0.51254 10.76324,-1.39109 v -16.32808 h 10.83654 v 24.60182 z"
     id="path22"
     inkscape:connector-curvature="0"
     style="fill:#ffffff;stroke-width:4.26064587"
     inkscape:export-filename="C:\Users\suitedoalex\sites\racing-logo-2.png"
     inkscape:export-xdpi="160.73195"
     inkscape:export-ydpi="160.73195" />
</svg>
